<svg id="图层_1" data-name="图层 1" xmlns="http://www.w3.org/2000/svg" viewBox="0 0 146 31.57"><defs><style>.cls-1,.cls-2{fill:#004fa0;}.cls-2{fill-rule:evenodd;}</style></defs><title>logo全套</title><path class="cls-1" d="M38.67,20.22h.58v10.7h-.58V28.06l-3.31,1.4-.29-.56c.91-.32,2.26-.86,3.6-1.41v-3.7H35.41V23.2h3.26ZM45,30.15c.62,0,.71-.54.78-2.59a1.56,1.56,0,0,0,.56.29c-.09,2.14-.26,2.87-1.33,2.87H42.85c-1,0-1.28-.28-1.28-1.34V20.24h.6v4.29a20.46,20.46,0,0,0,3.32-2.4l.46.49a28.46,28.46,0,0,1-3.79,2.51V29.4c0,.62.12.76.71.76Z"/><path class="cls-1" d="M60.53,30.53H55.3V20.89h5.19v.55H55.88V30h4.65Zm-.79-1.64a21.45,21.45,0,0,0-1.32-2.5,15,15,0,0,1-2,2.92,2.43,2.43,0,0,0-.47-.34,13.33,13.33,0,0,0,2.16-3.11,32.1,32.1,0,0,0-2-2.95l.46-.26c.62.8,1.28,1.72,1.88,2.64a22,22,0,0,0,1.23-3.15l.54.12a25.63,25.63,0,0,1-1.42,3.54,22,22,0,0,1,1.55,2.76Zm2.08-6.27a9.87,9.87,0,0,1-1.13,2.5,3.43,3.43,0,0,0-.52-.29A11.4,11.4,0,0,0,61.83,20l.57.09a18.78,18.78,0,0,1-.43,2h3.51l.11,0,.37.13a19.4,19.4,0,0,1-.8,3L64.67,25a16.6,16.6,0,0,0,.65-2.36Zm1.4,1.61c0,.34,0,.69,0,1.07a7.72,7.72,0,0,0,2.7,5.27,1.72,1.72,0,0,0-.39.45A7.59,7.59,0,0,1,63,26.9a8,8,0,0,1-2.07,4.19,2.18,2.18,0,0,0-.43-.4,8.75,8.75,0,0,0,2.16-6.47v-.78h.55Z"/><path class="cls-1" d="M85.26,30.07v.55H75.06v-.55h4.77V26.59H76.19V26h8v.55H80.43v3.47Zm-9.6-5.93h-.57V21.54h5c-.19-.44-.48-1-.71-1.42l.59-.17c.28.5.62,1.14.82,1.59H85.2v2.26h-.58V22.1h-9Zm-.45,1.14A10.92,10.92,0,0,0,78.77,23l.41.35a13,13,0,0,1-3.62,2.46ZM81.43,23a35.63,35.63,0,0,1,3.68,2.2l-.35.46a32,32,0,0,0-3.67-2.29Z"/><path class="cls-1" d="M96.85,22a12.35,12.35,0,0,1-2,3,4.45,4.45,0,0,0-.52-.37A11.87,11.87,0,0,0,97.07,20l.57.15c-.17.45-.34.91-.55,1.35h8V22Zm6.22,2.74c.12,2.81.51,5.75,1.57,5.75.23,0,.32-.65.34-1.68a2,2,0,0,0,.44.3c-.06,1.42-.22,1.95-.83,1.95-1.46,0-1.9-2.52-2.08-5.78H95.7v-.54Zm-6.22-1.67h7.36v.52H96.85Z"/><path class="cls-1" d="M119.92,30a11.47,11.47,0,0,0,2.33.21c.33,0,2.47,0,2.93,0a1.53,1.53,0,0,0-.24.58h-2.72c-2.69,0-4.62-.46-5.74-2.78a6.74,6.74,0,0,1-1.92,3,4.25,4.25,0,0,0-.47-.4c1.39-1.1,2.07-2.85,2.37-5.11l.57.06a15.24,15.24,0,0,1-.3,1.64,4,4,0,0,0,2.61,2.62V24.32H116v-.56h7.31v.56h-3.43v2.31h3.8v.56h-3.8Zm-4.69-6.21h-.58V21.42h4.9a9,9,0,0,0-.67-1.32l.56-.16a7.66,7.66,0,0,1,.73,1.39l-.24.09h4.71v2.41H124V22h-8.8Z"/><path class="cls-1" d="M137.57,23.88h3.12v.55h-3.12v1.44h2.61v3.47c0,.33-.06.5-.32.6a5.1,5.1,0,0,1-1.44.1,1.87,1.87,0,0,0-.21-.52c.63,0,1.07,0,1.23,0s.18,0,.18-.18V26.41h-2.06V31H137V26.41h-1.94V30h-.55V25.86H137V24.43h-3.09v-.55H137v-1.5H135.2a8.36,8.36,0,0,1-.71,1.4,3.74,3.74,0,0,0-.54-.23,9.43,9.43,0,0,0,1.29-3.23l.57.11c-.12.47-.26.95-.41,1.39H137V20h.56v1.79h2.64v.56h-2.64Zm4.75,3.93h-.55V21.18h.55Zm2.17-7.75V30c0,.51-.13.69-.46.82a7.35,7.35,0,0,1-1.84.12c0-.17-.13-.45-.22-.66.77,0,1.47,0,1.69,0s.26-.06.26-.27v-10Z"/><path class="cls-1" d="M47.68,6.7A10.7,10.7,0,0,1,47,10.94a2.85,2.85,0,0,1-2.74,1.92H35.35V.54h8.91a2.86,2.86,0,0,1,2.79,1.92,11.19,11.19,0,0,1,.63,4.23m-2.79,0a12.23,12.23,0,0,0-.2-2.55q-.2-.87-.71-.87H38.09v6.86H44q.5,0,.71-.9a12,12,0,0,0,.21-2.54"/><path class="cls-1" d="M63.73,12.87h-3l-1-2.05H53.4l-1,2.05h-3L54.7,1.58a2.08,2.08,0,0,1,3-.92,2.23,2.23,0,0,1,.76.92ZM58.8,8.76l-2-4.36a.26.26,0,0,0-.24-.17.26.26,0,0,0-.26.17l-2,4.36Z"/><path class="cls-1" d="M77.14,10.13a2.75,2.75,0,0,1-2.74,2.74H66.17V10.13h7.94a.25.25,0,0,0,.29-.29V8.35a.25.25,0,0,0-.29-.29h-5.2a2.73,2.73,0,0,1-2.74-2.74V3.27A2.64,2.64,0,0,1,67,1.34a2.64,2.64,0,0,1,1.94-.8h6.86V3.27H69.18a.27.27,0,0,0-.27.27V5.06a.27.27,0,0,0,.27.27H74.4a2.75,2.75,0,0,1,2.74,2.74Z"/><path class="cls-1" d="M93.19,12.87H90L87.93,8.35l-.11-.19a.17.17,0,0,0-.16-.09H83v4.8H80.26V.54H83V5.33h3.71a.17.17,0,0,0,.11,0A1.12,1.12,0,0,0,87,5.06L89.3.54h3.21L90,5.33l-.17.32a.77.77,0,0,1-.23.25,3.55,3.55,0,0,1,.83.91,9.56,9.56,0,0,1,.67,1.25Z"/><polygon class="cls-1" points="106.6 12.87 97 12.87 97 0.54 99.74 0.54 99.74 10.13 106.6 10.13 106.6 12.87"/><rect class="cls-1" x="110.06" y="0.54" width="2.74" height="12.33"/><path class="cls-1" d="M129.72,12.87H127V4.43a.24.24,0,0,0-.14,0,.36.36,0,0,0-.11.11l-2,3a3.35,3.35,0,0,1-.8.88,1.85,1.85,0,0,1-1.1.34,1.76,1.76,0,0,1-1-.3,3.44,3.44,0,0,1-.83-.93l-2-3a.29.29,0,0,0-.24-.16v8.44H116V.54h2.74a1.87,1.87,0,0,1,1.1.33,3.33,3.33,0,0,1,.8.9l2,3a.29.29,0,0,0,.24.16.3.3,0,0,0,.26-.16l2-3a3.08,3.08,0,0,1,.8-.88A1.86,1.86,0,0,1,127,.54h2.74Z"/><path class="cls-1" d="M146,12.87h-3l-1-2.05h-6.37l-1,2.05h-3L137,1.58a2.08,2.08,0,0,1,3-.92,2.23,2.23,0,0,1,.76.92Zm-4.93-4.11-2-4.36a.26.26,0,0,0-.24-.17.26.26,0,0,0-.26.17l-2,4.36Z"/><path class="cls-2" d="M6.55,3.33c.67,0,1.22.43,1.23.62s-.52.68-1.19.7S5.37,4.22,5.37,4s.52-.68,1.19-.7"/><path class="cls-2" d="M14.39,1.56A2.16,2.16,0,0,1,14,3.72c-.27.09-1.21-.53-1.51-1.55A2.16,2.16,0,0,1,12.88,0c.27-.09,1.21.53,1.51,1.55"/><path class="cls-2" d="M18.73,2.48c-.31,1-1.25,1.63-1.52,1.54a2.16,2.16,0,0,1-.39-2.16c.31-1,1.25-1.63,1.52-1.54a2.15,2.15,0,0,1,.39,2.16"/><path class="cls-2" d="M16.3,5c-.24.71-.91,1.11-1.1,1A1.51,1.51,0,0,1,15,4.56c.24-.71.91-1.11,1.1-1A1.51,1.51,0,0,1,16.3,5"/><path class="cls-2" d="M7.83,6.35A1.21,1.21,0,0,1,9.1,6.14a1.29,1.29,0,0,1-.55,1.2,1.21,1.21,0,0,1-1.27.21,1.29,1.29,0,0,1,.55-1.2"/><path class="cls-2" d="M8.92,15.87a2.27,2.27,0,0,1,.31,2.28c-.24.18-1.37-.11-2-1a2.26,2.26,0,0,1-.3-2.28c.24-.18,1.37.11,2,1"/><path class="cls-2" d="M4,10a1.52,1.52,0,0,1,1.55.43c0,.22-.46.89-1.22,1.07a1.52,1.52,0,0,1-1.54-.43c0-.22.45-.89,1.22-1.07"/><path class="cls-2" d="M2.62,15.3A1.61,1.61,0,0,1,3,16.89c-.16.14-1,0-1.49-.59a1.61,1.61,0,0,1-.36-1.59c.16-.14,1,0,1.49.59"/><path class="cls-2" d="M5.25,7.3a1.23,1.23,0,0,1,.18,1.23c-.13.1-.74-.05-1.09-.54a1.23,1.23,0,0,1-.18-1.23c.13-.1.74.05,1.09.54"/><path class="cls-2" d="M1.2,6.28c.57.18.9.72.86.88A1.14,1.14,0,0,1,.86,7.4C.3,7.22,0,6.67,0,6.51A1.15,1.15,0,0,1,1.2,6.28"/><path class="cls-2" d="M3.63,21.8c.77-.83,1.95-1,2.17-.74a2.31,2.31,0,0,1-.63,2.26c-.77.83-1.95,1-2.17.73a2.3,2.3,0,0,1,.63-2.26"/><path class="cls-2" d="M3.39,18.22c.84.12,1.43.81,1.4,1a1.65,1.65,0,0,1-1.63.6c-.84-.12-1.43-.81-1.4-1a1.65,1.65,0,0,1,1.63-.6"/><path class="cls-2" d="M6.78,22.37c.19-.7.81-1.13,1-1.08a1.47,1.47,0,0,1,.31,1.46c-.19.7-.81,1.13-1,1.08a1.46,1.46,0,0,1-.31-1.46"/><path class="cls-2" d="M11.23,3.18a1.44,1.44,0,0,1-.13,1.45c-.18.08-.83-.27-1.1-.93a1.44,1.44,0,0,1,.13-1.46c.18-.07.83.27,1.1.93"/><path class="cls-2" d="M23.75,3.33c-.67,0-1.22.43-1.23.62s.52.68,1.19.7,1.22-.43,1.23-.62-.52-.68-1.19-.7"/><path class="cls-2" d="M22.46,6.35a1.21,1.21,0,0,0-1.27-.21,1.29,1.29,0,0,0,.55,1.2A1.21,1.21,0,0,0,23,7.54a1.29,1.29,0,0,0-.55-1.2"/><path class="cls-2" d="M21.37,15.87a2.27,2.27,0,0,0-.31,2.28c.24.18,1.37-.11,2-1a2.26,2.26,0,0,0,.3-2.28c-.24-.18-1.37.11-2,1"/><path class="cls-2" d="M26.26,10a1.52,1.52,0,0,0-1.54.43c0,.22.45.89,1.22,1.07a1.52,1.52,0,0,0,1.54-.43c0-.22-.45-.89-1.22-1.07"/><path class="cls-2" d="M27.68,15.3a1.61,1.61,0,0,0-.36,1.59c.16.14,1,0,1.49-.59a1.61,1.61,0,0,0,.36-1.59c-.16-.14-1,0-1.49.59"/><path class="cls-2" d="M25,7.3a1.23,1.23,0,0,0-.18,1.23c.13.1.74-.05,1.09-.54a1.23,1.23,0,0,0,.18-1.23c-.13-.1-.74.05-1.09.54"/><path class="cls-2" d="M29.1,6.28c-.57.18-.9.72-.86.88a1.15,1.15,0,0,0,1.19.23c.56-.18.9-.72.86-.88a1.15,1.15,0,0,0-1.19-.23"/><path class="cls-2" d="M26.67,21.8c-.77-.83-1.95-1-2.17-.74a2.31,2.31,0,0,0,.63,2.26c.77.83,1.95,1,2.17.73a2.3,2.3,0,0,0-.63-2.26"/><path class="cls-2" d="M26.91,18.22c-.84.12-1.43.81-1.4,1a1.65,1.65,0,0,0,1.63.6c.84-.12,1.43-.81,1.4-1a1.65,1.65,0,0,0-1.63-.6"/><path class="cls-2" d="M23.52,22.37c-.19-.7-.81-1.13-1-1.08a1.47,1.47,0,0,0-.31,1.46c.19.7.81,1.13,1,1.08a1.46,1.46,0,0,0,.31-1.46"/><path class="cls-2" d="M19.07,3.18a1.44,1.44,0,0,0,.14,1.45c.18.08.83-.27,1.1-.93a1.44,1.44,0,0,0-.13-1.46c-.18-.07-.83.27-1.1.93"/><path class="cls-1" d="M1.69,20.91A34,34,0,0,1,8,19.52h.49l.72.57a60.85,60.85,0,0,0-7.57.83"/><path class="cls-1" d="M3,13.26A31,31,0,0,1,8.77,12h.44l.66.52A55.58,55.58,0,0,0,3,13.26"/><path class="cls-1" d="M6.2,6.05a27.56,27.56,0,0,1,4.45-.83H11l.51.33a50.34,50.34,0,0,0-5.3.49"/><path class="cls-1" d="M28.6,20.91a34,34,0,0,0-6.36-1.4h-.49l-.72.57a60.85,60.85,0,0,1,7.57.83"/><path class="cls-1" d="M27.32,13.26A31,31,0,0,0,21.53,12h-.44l-.66.52a55.58,55.58,0,0,1,6.89.76"/><path class="cls-1" d="M24.1,6.05a27.57,27.57,0,0,0-4.45-.83H19.3l-.51.33a50.34,50.34,0,0,1,5.3.49"/><path class="cls-1" d="M16.18,24.28s-.46-1,13-8.95c0,0-.34-.51-13.23,6.65V17.81s-.35-3.3,13.7-11.15c0,0,.33-.57-14,8.19L15.6,9.6s0-2.05,8.11-6.89c0,0-7.71,4.24-8.5,4.24h0c-.79,0-8.55-4.24-8.55-4.24,8.11,4.83,8.11,6.89,8.11,6.89l-.09,5.26C.35,6.09.67,6.66.67,6.66c14,7.85,13.7,11.15,13.7,11.15V22C1.56,14.82,1.14,15.34,1.14,15.34c13.46,7.91,13,8.95,13,8.95v5.06c0,1.57-1.48,1.54-2,1.58l-.27,0a.56.56,0,0,0,0,.61c.47,0,2.62,0,3.2,0s2.76,0,3.44,0a.57.57,0,0,0,0-.61l-.45,0c-.47,0-2,0-2-1.57V24.28Z"/><path class="cls-1" d="M16.08,26.83c0,.1,0,.14.18.17A3.67,3.67,0,0,1,18,26.3a.89.89,0,0,1,1,.83c0,.64-.56.91-1.13.91a1.12,1.12,0,0,1-.69-.25c-.41-.27-.56-.28-.67-.28s-.34.31-.34.84"/></svg>